<mxfile host="app.diagrams.net" modified="2023-10-25T16:19:05.013Z" agent="Mozilla/5.0 (Windows NT 10.0; Win64; x64) AppleWebKit/537.36 (KHTML, like Gecko) Chrome/118.0.0.0 Safari/537.36" etag="RjTUIvF_5XRRxW3z4Muv" version="22.0.8" type="device">
  <diagram name="Page-1" id="QpidKonBx11Riz4tQwjv">
    <mxGraphModel dx="1050" dy="566" grid="1" gridSize="10" guides="1" tooltips="1" connect="1" arrows="1" fold="1" page="1" pageScale="1" pageWidth="850" pageHeight="1100" math="0" shadow="0">
      <root>
        <mxCell id="0" />
        <mxCell id="1" parent="0" />
        <mxCell id="il8Qts4tHNVHCpMo-aYG-3" value="M" style="edgeStyle=none;curved=1;rounded=0;orthogonalLoop=1;jettySize=auto;html=1;fontSize=12;startSize=8;endSize=8;endArrow=none;endFill=0;exitX=1;exitY=1;exitDx=0;exitDy=0;" parent="1" source="rKTgrgR9cb5fBOaTFNlc-1" target="il8Qts4tHNVHCpMo-aYG-1" edge="1">
          <mxGeometry relative="1" as="geometry">
            <mxPoint x="290" y="210" as="sourcePoint" />
          </mxGeometry>
        </mxCell>
        <mxCell id="rKTgrgR9cb5fBOaTFNlc-1" value="TA" style="whiteSpace=wrap;html=1;align=center;" parent="1" vertex="1">
          <mxGeometry x="265" y="170" width="100" height="40" as="geometry" />
        </mxCell>
        <mxCell id="rKTgrgR9cb5fBOaTFNlc-2" value="Course" style="whiteSpace=wrap;html=1;align=center;" parent="1" vertex="1">
          <mxGeometry x="255" y="430" width="100" height="40" as="geometry" />
        </mxCell>
        <mxCell id="rKTgrgR9cb5fBOaTFNlc-18" style="rounded=0;orthogonalLoop=1;jettySize=auto;html=1;exitX=0.5;exitY=1;exitDx=0;exitDy=0;entryX=0.374;entryY=-0.035;entryDx=0;entryDy=0;endArrow=none;endFill=0;entryPerimeter=0;" parent="1" source="rKTgrgR9cb5fBOaTFNlc-3" target="rKTgrgR9cb5fBOaTFNlc-1" edge="1">
          <mxGeometry relative="1" as="geometry" />
        </mxCell>
        <mxCell id="rKTgrgR9cb5fBOaTFNlc-3" value="fName" style="ellipse;whiteSpace=wrap;html=1;align=center;" parent="1" vertex="1">
          <mxGeometry x="235" y="40" width="100" height="40" as="geometry" />
        </mxCell>
        <mxCell id="rKTgrgR9cb5fBOaTFNlc-4" value="lName" style="ellipse;whiteSpace=wrap;html=1;align=center;" parent="1" vertex="1">
          <mxGeometry x="345" y="40" width="100" height="40" as="geometry" />
        </mxCell>
        <mxCell id="rKTgrgR9cb5fBOaTFNlc-15" style="rounded=0;orthogonalLoop=1;jettySize=auto;html=1;exitX=0;exitY=1;exitDx=0;exitDy=0;endArrow=none;endFill=0;entryX=1;entryY=0;entryDx=0;entryDy=0;" parent="1" source="rKTgrgR9cb5fBOaTFNlc-5" target="rKTgrgR9cb5fBOaTFNlc-1" edge="1">
          <mxGeometry relative="1" as="geometry">
            <mxPoint x="270" y="170" as="targetPoint" />
          </mxGeometry>
        </mxCell>
        <mxCell id="rKTgrgR9cb5fBOaTFNlc-5" value="studentNum" style="ellipse;whiteSpace=wrap;html=1;align=center;" parent="1" vertex="1">
          <mxGeometry x="455" y="40" width="100" height="40" as="geometry" />
        </mxCell>
        <mxCell id="rKTgrgR9cb5fBOaTFNlc-19" style="rounded=0;orthogonalLoop=1;jettySize=auto;html=1;exitX=1;exitY=1;exitDx=0;exitDy=0;entryX=0;entryY=0;entryDx=0;entryDy=0;endArrow=none;endFill=0;" parent="1" source="rKTgrgR9cb5fBOaTFNlc-6" target="rKTgrgR9cb5fBOaTFNlc-1" edge="1">
          <mxGeometry relative="1" as="geometry" />
        </mxCell>
        <mxCell id="rKTgrgR9cb5fBOaTFNlc-6" value="&lt;u&gt;userID&lt;/u&gt;" style="ellipse;whiteSpace=wrap;html=1;align=center;" parent="1" vertex="1">
          <mxGeometry x="125" y="40" width="100" height="40" as="geometry" />
        </mxCell>
        <mxCell id="rKTgrgR9cb5fBOaTFNlc-20" style="rounded=0;orthogonalLoop=1;jettySize=auto;html=1;exitX=1;exitY=1;exitDx=0;exitDy=0;entryX=0;entryY=0.5;entryDx=0;entryDy=0;endArrow=none;endFill=0;strokeColor=default;" parent="1" source="rKTgrgR9cb5fBOaTFNlc-7" target="rKTgrgR9cb5fBOaTFNlc-1" edge="1">
          <mxGeometry relative="1" as="geometry" />
        </mxCell>
        <mxCell id="rKTgrgR9cb5fBOaTFNlc-7" value="studentType" style="ellipse;whiteSpace=wrap;html=1;align=center;" parent="1" vertex="1">
          <mxGeometry x="15" y="40" width="100" height="40" as="geometry" />
        </mxCell>
        <mxCell id="rKTgrgR9cb5fBOaTFNlc-17" style="rounded=0;orthogonalLoop=1;jettySize=auto;html=1;entryX=1;entryY=0.5;entryDx=0;entryDy=0;endArrow=none;endFill=0;exitX=0;exitY=1;exitDx=0;exitDy=0;" parent="1" source="rKTgrgR9cb5fBOaTFNlc-9" target="rKTgrgR9cb5fBOaTFNlc-1" edge="1">
          <mxGeometry relative="1" as="geometry">
            <mxPoint x="455" y="150" as="sourcePoint" />
          </mxGeometry>
        </mxCell>
        <mxCell id="rKTgrgR9cb5fBOaTFNlc-9" value="image" style="ellipse;whiteSpace=wrap;html=1;align=center;" parent="1" vertex="1">
          <mxGeometry x="565" y="40" width="100" height="40" as="geometry" />
        </mxCell>
        <mxCell id="rKTgrgR9cb5fBOaTFNlc-14" value="" style="endArrow=none;html=1;rounded=0;entryX=0.5;entryY=1;entryDx=0;entryDy=0;exitX=0.75;exitY=0;exitDx=0;exitDy=0;" parent="1" source="rKTgrgR9cb5fBOaTFNlc-1" target="rKTgrgR9cb5fBOaTFNlc-4" edge="1">
          <mxGeometry width="50" height="50" relative="1" as="geometry">
            <mxPoint x="400" y="210" as="sourcePoint" />
            <mxPoint x="450" y="160" as="targetPoint" />
          </mxGeometry>
        </mxCell>
        <mxCell id="rKTgrgR9cb5fBOaTFNlc-21" value="&lt;u&gt;courseNum&lt;/u&gt;" style="ellipse;whiteSpace=wrap;html=1;align=center;" parent="1" vertex="1">
          <mxGeometry x="75" y="510" width="100" height="40" as="geometry" />
        </mxCell>
        <mxCell id="rKTgrgR9cb5fBOaTFNlc-22" value="courseName" style="ellipse;whiteSpace=wrap;html=1;align=center;" parent="1" vertex="1">
          <mxGeometry x="185" y="510" width="100" height="40" as="geometry" />
        </mxCell>
        <mxCell id="rKTgrgR9cb5fBOaTFNlc-23" value="courseLevel" style="ellipse;whiteSpace=wrap;html=1;align=center;" parent="1" vertex="1">
          <mxGeometry x="295" y="510" width="100" height="40" as="geometry" />
        </mxCell>
        <mxCell id="rKTgrgR9cb5fBOaTFNlc-24" value="yearCreated" style="ellipse;whiteSpace=wrap;html=1;align=center;" parent="1" vertex="1">
          <mxGeometry x="405" y="510" width="100" height="40" as="geometry" />
        </mxCell>
        <mxCell id="rKTgrgR9cb5fBOaTFNlc-25" value="" style="endArrow=none;html=1;rounded=0;exitX=0.779;exitY=0.126;exitDx=0;exitDy=0;exitPerimeter=0;" parent="1" source="rKTgrgR9cb5fBOaTFNlc-21" target="rKTgrgR9cb5fBOaTFNlc-2" edge="1">
          <mxGeometry width="50" height="50" relative="1" as="geometry">
            <mxPoint x="305" y="370" as="sourcePoint" />
            <mxPoint x="355" y="320" as="targetPoint" />
          </mxGeometry>
        </mxCell>
        <mxCell id="rKTgrgR9cb5fBOaTFNlc-27" value="" style="endArrow=none;html=1;rounded=0;exitX=0.5;exitY=0;exitDx=0;exitDy=0;entryX=0.57;entryY=1.031;entryDx=0;entryDy=0;entryPerimeter=0;" parent="1" source="rKTgrgR9cb5fBOaTFNlc-23" target="rKTgrgR9cb5fBOaTFNlc-2" edge="1">
          <mxGeometry width="50" height="50" relative="1" as="geometry">
            <mxPoint x="265" y="500" as="sourcePoint" />
            <mxPoint x="315" y="450" as="targetPoint" />
          </mxGeometry>
        </mxCell>
        <mxCell id="rKTgrgR9cb5fBOaTFNlc-28" value="" style="endArrow=none;html=1;rounded=0;exitX=0.35;exitY=0.056;exitDx=0;exitDy=0;entryX=1;entryY=1;entryDx=0;entryDy=0;exitPerimeter=0;" parent="1" source="rKTgrgR9cb5fBOaTFNlc-24" target="rKTgrgR9cb5fBOaTFNlc-2" edge="1">
          <mxGeometry width="50" height="50" relative="1" as="geometry">
            <mxPoint x="265" y="520" as="sourcePoint" />
            <mxPoint x="315" y="470" as="targetPoint" />
          </mxGeometry>
        </mxCell>
        <mxCell id="il8Qts4tHNVHCpMo-aYG-7" value="M" style="edgeStyle=none;curved=1;rounded=0;orthogonalLoop=1;jettySize=auto;html=1;exitX=0;exitY=0.5;exitDx=0;exitDy=0;entryX=1;entryY=0.5;entryDx=0;entryDy=0;fontSize=12;startSize=8;endSize=8;endArrow=none;endFill=0;" parent="1" source="rKTgrgR9cb5fBOaTFNlc-29" target="il8Qts4tHNVHCpMo-aYG-6" edge="1">
          <mxGeometry relative="1" as="geometry" />
        </mxCell>
        <mxCell id="rKTgrgR9cb5fBOaTFNlc-29" value="CourseOffering" style="whiteSpace=wrap;html=1;align=center;" parent="1" vertex="1">
          <mxGeometry x="610" y="395" width="100" height="40" as="geometry" />
        </mxCell>
        <mxCell id="rKTgrgR9cb5fBOaTFNlc-30" value="courseOfferID" style="ellipse;whiteSpace=wrap;html=1;align=center;fontStyle=4" parent="1" vertex="1">
          <mxGeometry x="730" y="335" width="100" height="40" as="geometry" />
        </mxCell>
        <mxCell id="rKTgrgR9cb5fBOaTFNlc-31" value="numStudent" style="ellipse;whiteSpace=wrap;html=1;align=center;" parent="1" vertex="1">
          <mxGeometry x="740" y="385" width="100" height="40" as="geometry" />
        </mxCell>
        <mxCell id="rKTgrgR9cb5fBOaTFNlc-32" value="term" style="ellipse;whiteSpace=wrap;html=1;align=center;" parent="1" vertex="1">
          <mxGeometry x="740" y="435" width="100" height="40" as="geometry" />
        </mxCell>
        <mxCell id="rKTgrgR9cb5fBOaTFNlc-33" value="year" style="ellipse;whiteSpace=wrap;html=1;align=center;" parent="1" vertex="1">
          <mxGeometry x="740" y="485" width="100" height="40" as="geometry" />
        </mxCell>
        <mxCell id="rKTgrgR9cb5fBOaTFNlc-35" value="" style="endArrow=none;html=1;rounded=0;entryX=0;entryY=1;entryDx=0;entryDy=0;exitX=1;exitY=0;exitDx=0;exitDy=0;" parent="1" source="rKTgrgR9cb5fBOaTFNlc-29" target="rKTgrgR9cb5fBOaTFNlc-30" edge="1">
          <mxGeometry width="50" height="50" relative="1" as="geometry">
            <mxPoint x="850" y="415" as="sourcePoint" />
            <mxPoint x="900" y="365" as="targetPoint" />
          </mxGeometry>
        </mxCell>
        <mxCell id="rKTgrgR9cb5fBOaTFNlc-36" value="" style="endArrow=none;html=1;rounded=0;exitX=0;exitY=0.5;exitDx=0;exitDy=0;entryX=1;entryY=0.25;entryDx=0;entryDy=0;" parent="1" source="rKTgrgR9cb5fBOaTFNlc-31" target="rKTgrgR9cb5fBOaTFNlc-29" edge="1">
          <mxGeometry width="50" height="50" relative="1" as="geometry">
            <mxPoint x="880" y="395" as="sourcePoint" />
            <mxPoint x="930" y="345" as="targetPoint" />
          </mxGeometry>
        </mxCell>
        <mxCell id="rKTgrgR9cb5fBOaTFNlc-37" value="" style="endArrow=none;html=1;rounded=0;exitX=0.048;exitY=0.302;exitDx=0;exitDy=0;entryX=1;entryY=0.75;entryDx=0;entryDy=0;exitPerimeter=0;" parent="1" source="rKTgrgR9cb5fBOaTFNlc-32" target="rKTgrgR9cb5fBOaTFNlc-29" edge="1">
          <mxGeometry width="50" height="50" relative="1" as="geometry">
            <mxPoint x="870" y="485" as="sourcePoint" />
            <mxPoint x="920" y="435" as="targetPoint" />
          </mxGeometry>
        </mxCell>
        <mxCell id="rKTgrgR9cb5fBOaTFNlc-38" value="" style="endArrow=none;html=1;rounded=0;exitX=0;exitY=0;exitDx=0;exitDy=0;entryX=1;entryY=1;entryDx=0;entryDy=0;" parent="1" source="rKTgrgR9cb5fBOaTFNlc-33" target="rKTgrgR9cb5fBOaTFNlc-29" edge="1">
          <mxGeometry width="50" height="50" relative="1" as="geometry">
            <mxPoint x="830" y="505" as="sourcePoint" />
            <mxPoint x="900.7106781186548" y="455" as="targetPoint" />
          </mxGeometry>
        </mxCell>
        <mxCell id="il8Qts4tHNVHCpMo-aYG-4" value="M" style="edgeStyle=none;curved=1;rounded=0;orthogonalLoop=1;jettySize=auto;html=1;entryX=0.067;entryY=1.125;entryDx=0;entryDy=0;fontSize=12;startSize=8;endSize=8;endArrow=none;endFill=0;entryPerimeter=0;" parent="1" source="il8Qts4tHNVHCpMo-aYG-1" edge="1">
          <mxGeometry relative="1" as="geometry">
            <mxPoint x="654.02" y="393.75" as="targetPoint" />
          </mxGeometry>
        </mxCell>
        <mxCell id="il8Qts4tHNVHCpMo-aYG-10" style="edgeStyle=none;curved=1;rounded=0;orthogonalLoop=1;jettySize=auto;html=1;exitX=0;exitY=0.5;exitDx=0;exitDy=0;entryX=1;entryY=0.5;entryDx=0;entryDy=0;fontSize=12;startSize=8;endSize=8;endArrow=none;endFill=0;" parent="1" source="il8Qts4tHNVHCpMo-aYG-1" target="il8Qts4tHNVHCpMo-aYG-9" edge="1">
          <mxGeometry relative="1" as="geometry" />
        </mxCell>
        <mxCell id="il8Qts4tHNVHCpMo-aYG-1" value="workedOn" style="shape=rhombus;perimeter=rhombusPerimeter;whiteSpace=wrap;html=1;align=center;fontSize=16;" parent="1" vertex="1">
          <mxGeometry x="505" y="250" width="120" height="60" as="geometry" />
        </mxCell>
        <mxCell id="il8Qts4tHNVHCpMo-aYG-2" value="" style="endArrow=none;html=1;rounded=0;fontSize=12;startSize=8;endSize=8;curved=1;entryX=0.25;entryY=1;entryDx=0;entryDy=0;exitX=0.5;exitY=0;exitDx=0;exitDy=0;" parent="1" source="rKTgrgR9cb5fBOaTFNlc-22" target="rKTgrgR9cb5fBOaTFNlc-2" edge="1">
          <mxGeometry width="50" height="50" relative="1" as="geometry">
            <mxPoint x="255" y="500" as="sourcePoint" />
            <mxPoint x="305" y="450" as="targetPoint" />
          </mxGeometry>
        </mxCell>
        <mxCell id="il8Qts4tHNVHCpMo-aYG-8" value="1" style="edgeStyle=none;curved=1;rounded=0;orthogonalLoop=1;jettySize=auto;html=1;fontSize=12;startSize=8;endSize=8;endArrow=none;endFill=0;exitX=0;exitY=0.5;exitDx=0;exitDy=0;" parent="1" source="il8Qts4tHNVHCpMo-aYG-6" target="rKTgrgR9cb5fBOaTFNlc-2" edge="1">
          <mxGeometry relative="1" as="geometry">
            <mxPoint x="420" y="450" as="sourcePoint" />
          </mxGeometry>
        </mxCell>
        <mxCell id="il8Qts4tHNVHCpMo-aYG-6" value="associated" style="shape=rhombus;perimeter=rhombusPerimeter;whiteSpace=wrap;html=1;align=center;fontSize=16;" parent="1" vertex="1">
          <mxGeometry x="430" y="400" width="120" height="60" as="geometry" />
        </mxCell>
        <mxCell id="il8Qts4tHNVHCpMo-aYG-9" value="Hours" style="ellipse;whiteSpace=wrap;html=1;align=center;fontSize=16;" parent="1" vertex="1">
          <mxGeometry x="600" y="210" width="100" height="40" as="geometry" />
        </mxCell>
        <mxCell id="il8Qts4tHNVHCpMo-aYG-20" value="M" style="edgeStyle=none;curved=1;rounded=0;orthogonalLoop=1;jettySize=auto;html=1;exitX=0.5;exitY=1;exitDx=0;exitDy=0;fontSize=12;startSize=8;endSize=8;endArrow=none;endFill=0;" parent="1" source="il8Qts4tHNVHCpMo-aYG-11" target="rKTgrgR9cb5fBOaTFNlc-2" edge="1">
          <mxGeometry relative="1" as="geometry" />
        </mxCell>
        <mxCell id="il8Qts4tHNVHCpMo-aYG-11" value="love" style="shape=rhombus;perimeter=rhombusPerimeter;whiteSpace=wrap;html=1;align=center;fontSize=16;" parent="1" vertex="1">
          <mxGeometry x="135" y="290" width="120" height="60" as="geometry" />
        </mxCell>
        <mxCell id="il8Qts4tHNVHCpMo-aYG-18" value="M" style="edgeStyle=none;curved=1;rounded=0;orthogonalLoop=1;jettySize=auto;html=1;exitX=0.5;exitY=1;exitDx=0;exitDy=0;entryX=0.75;entryY=0;entryDx=0;entryDy=0;fontSize=12;startSize=8;endSize=8;endArrow=none;endFill=0;" parent="1" source="il8Qts4tHNVHCpMo-aYG-12" target="rKTgrgR9cb5fBOaTFNlc-2" edge="1">
          <mxGeometry relative="1" as="geometry" />
        </mxCell>
        <mxCell id="il8Qts4tHNVHCpMo-aYG-12" value="hate" style="shape=rhombus;perimeter=rhombusPerimeter;whiteSpace=wrap;html=1;align=center;fontSize=16;" parent="1" vertex="1">
          <mxGeometry x="265" y="290" width="120" height="60" as="geometry" />
        </mxCell>
        <mxCell id="il8Qts4tHNVHCpMo-aYG-15" value="M" style="edgeStyle=none;curved=1;rounded=0;orthogonalLoop=1;jettySize=auto;html=1;entryX=0.5;entryY=0;entryDx=0;entryDy=0;fontSize=12;startSize=8;endSize=8;endArrow=none;endFill=0;exitX=0;exitY=1;exitDx=0;exitDy=0;" parent="1" source="rKTgrgR9cb5fBOaTFNlc-1" target="il8Qts4tHNVHCpMo-aYG-11" edge="1">
          <mxGeometry relative="1" as="geometry">
            <mxPoint x="320" y="220" as="sourcePoint" />
          </mxGeometry>
        </mxCell>
        <mxCell id="il8Qts4tHNVHCpMo-aYG-16" value="M" style="edgeStyle=none;curved=1;rounded=0;orthogonalLoop=1;jettySize=auto;html=1;exitX=0.5;exitY=1;exitDx=0;exitDy=0;entryX=0.5;entryY=0;entryDx=0;entryDy=0;fontSize=12;startSize=8;endSize=8;endArrow=none;endFill=0;" parent="1" source="rKTgrgR9cb5fBOaTFNlc-1" target="il8Qts4tHNVHCpMo-aYG-12" edge="1">
          <mxGeometry relative="1" as="geometry" />
        </mxCell>
        <mxCell id="il8Qts4tHNVHCpMo-aYG-34" value="" style="endArrow=none;html=1;rounded=0;fontSize=12;startSize=8;endSize=8;curved=1;entryX=0.894;entryY=1.001;entryDx=0;entryDy=0;entryPerimeter=0;exitX=0.173;exitY=0.349;exitDx=0;exitDy=0;exitPerimeter=0;" parent="1" source="il8Qts4tHNVHCpMo-aYG-1" target="rKTgrgR9cb5fBOaTFNlc-1" edge="1">
          <mxGeometry width="50" height="50" relative="1" as="geometry">
            <mxPoint x="520" y="270" as="sourcePoint" />
            <mxPoint x="510" y="290" as="targetPoint" />
          </mxGeometry>
        </mxCell>
        <mxCell id="il8Qts4tHNVHCpMo-aYG-35" value="" style="endArrow=none;html=1;rounded=0;fontSize=12;startSize=8;endSize=8;curved=1;exitX=0.943;exitY=0.45;exitDx=0;exitDy=0;exitPerimeter=0;entryX=-0.017;entryY=0.428;entryDx=0;entryDy=0;entryPerimeter=0;" parent="1" source="il8Qts4tHNVHCpMo-aYG-6" target="rKTgrgR9cb5fBOaTFNlc-29" edge="1">
          <mxGeometry width="50" height="50" relative="1" as="geometry">
            <mxPoint x="560" y="450" as="sourcePoint" />
            <mxPoint x="610" y="400" as="targetPoint" />
          </mxGeometry>
        </mxCell>
      </root>
    </mxGraphModel>
  </diagram>
</mxfile>
